<svg id="Layer_x0020_1" xmlns="http://www.w3.org/2000/svg" xmlns:xlink="http://www.w3.org/1999/xlink" width="321.326" height="321" viewBox="0 0 321.326 321">
  <defs>
    <linearGradient id="linear-gradient" x1="0.51" y1="-0.003" x2="0.48" y2="0.995" gradientUnits="objectBoundingBox">
      <stop offset="0" stop-color="#fac405"/>
      <stop offset="0.51" stop-color="#f5ae03"/>
      <stop offset="1" stop-color="#f09800"/>
    </linearGradient>
    <linearGradient id="linear-gradient-2" x1="0.512" y1="-0.003" x2="0.483" y2="0.994" xlink:href="#linear-gradient"/>
    <linearGradient id="linear-gradient-3" x1="0.511" y1="-0.004" x2="0.482" y2="0.993" xlink:href="#linear-gradient"/>
    <linearGradient id="linear-gradient-4" x1="0.51" y1="0" x2="0.481" y2="0.997" xlink:href="#linear-gradient"/>
    <linearGradient id="linear-gradient-5" x1="-2.177" y1="-0.095" x2="-2.207" y2="0.917" xlink:href="#linear-gradient"/>
  </defs>
  <ellipse id="Ellipse_5" data-name="Ellipse 5" cx="160.663" cy="155.018" rx="160.663" ry="155.018" transform="translate(0 5.211)" fill="#fefefe"/>
  <path id="Path_152" data-name="Path 152" d="M160.5,0A160.517,160.517,0,1,1,47.042,46.986,159.973,159.973,0,0,1,160.5,0ZM271.842,49.325a157.116,157.116,0,1,0,46.1,111.175A157.066,157.066,0,0,0,271.842,49.325Z" transform="translate(0 0)" fill="#cc260f"/>
  <path id="Path_153" data-name="Path 153" d="M574.375,2131.242a7.981,7.981,0,0,0-1.837-1.782c-4.676-3.675-9.019-6.012-15.087-6.958a49.383,49.383,0,0,0-5.011-.5,33.279,33.279,0,0,0-5.288.279,32.887,32.887,0,0,0-11.19,3.506,36.054,36.054,0,0,0-4.621,2.9c-.835.668-2.227,1.726-3.061,2.508l-.947.889c-.39.334-.5.612-.835.946l-2.616,3.063a35.115,35.115,0,0,0-5.01,9.742,32.713,32.713,0,0,0,1.893,24.551,33.236,33.236,0,0,0,4.342,6.626,7.809,7.809,0,0,0,.891,1c.334.335.5.612.891,1a37.053,37.053,0,0,0,10.856,7.514,32.935,32.935,0,0,0,8.629,2.506,36.7,36.7,0,0,0,19.151-2.281,28.693,28.693,0,0,0,6.736-4.232c1.114-.891,1.837-1.669,2.9-2.673a26.15,26.15,0,0,0,3.953-5.287,33.335,33.335,0,0,0,3.9-14.587,34.809,34.809,0,0,0-.167-5.4c-.056-.559-.223-1.169-.223-1.616H551.55v9.243h21.935a22.282,22.282,0,0,1-1.782,6.792,8.169,8.169,0,0,1-.724,1.392,10.938,10.938,0,0,1-.835,1.337,21.674,21.674,0,0,1-7.126,5.9,25.088,25.088,0,0,1-14.53,2.394,24.594,24.594,0,0,1-3.619-.724,9.243,9.243,0,0,1-1.614-.557l-1.5-.613a19.249,19.249,0,0,1-2.839-1.5,20.763,20.763,0,0,1-4.788-3.952,24.112,24.112,0,0,1-4.955-8.016,24.559,24.559,0,0,1-1-3.4q-.167-.836-.334-1.838c-.111-.668-.111-1.282-.167-1.948a25.516,25.516,0,0,1,.724-7.906,24.137,24.137,0,0,1,6.235-11.077,23.611,23.611,0,0,1,14.753-7.015,5.773,5.773,0,0,1,1,0,20.553,20.553,0,0,1,3.229,0c2.672,0,6.012,1.168,8.351,2.114a28.377,28.377,0,0,1,5.566,3.674,7.015,7.015,0,0,0,.724.612l6.4-6.343c0-.393.056-.057-.056-.115h-.223Z" transform="translate(-488.53 -2003.867)" fill="#4284f4" fill-rule="evenodd"/>
  <path id="Path_154" data-name="Path 154" d="M3456.12,2574.945a13.677,13.677,0,0,1,3.284-9.185,11.483,11.483,0,0,1,13.75-2.951,10.773,10.773,0,0,1,4.343,4.007l.225.391a15.031,15.031,0,0,1,1.947,8.295c0,2.84-1.336,6.681-3.173,8.52a18.08,18.08,0,0,1-1.446,1.445,11.287,11.287,0,0,1-12.249,1.17,12.209,12.209,0,0,1-4.953-4.845,14.041,14.041,0,0,1-1.728-6.736Zm22.937,16.646c0,4.9,0,7.626-2,11.025l-.168.221a2.56,2.56,0,0,1-.332.391c-3.51,4.564-10.523,5.01-14.643,2.56a12.414,12.414,0,0,1-4.788-5.122,7.789,7.789,0,0,1-.445-1c-.779.053-6.96,3.061-8.295,3.341.111,1.446,2.617,4.677,3.508,5.788a22.563,22.563,0,0,0,5.178,4.288c7.014,4.287,18.76,3.73,24.884-2.451,4.788-4.787,6.179-10.465,6.179-17.479v-38.8h-9.017v3.563c-.5-.057-1.113-.948-1.949-1.615a14.5,14.5,0,0,0-4.79-2.5,18.743,18.743,0,0,0-12.469.778,20.925,20.925,0,0,0-2.5,1.226,21.244,21.244,0,0,0-8.739,9.63,22.466,22.466,0,0,0-1.169,15.479,21.558,21.558,0,0,0,3.728,7.292c.278.334.5.668.836,1s.5.612.891,1c.613.611,1.227,1.113,1.893,1.671a19.177,19.177,0,0,0,2.172,1.5,20.411,20.411,0,0,0,5.122,2.227,18.777,18.777,0,0,0,6.569.668c2.728-.389,4.509-.668,6.9-2.171a10.292,10.292,0,0,0,3.006-2.616h.334Z" transform="translate(-3254.758 -2410.94)" fill="#4184f3" fill-rule="evenodd"/>
  <path id="Path_155" data-name="Path 155" d="M1768.743,2573.437c0-3.285.333-5.624,2.115-8.351a11.912,11.912,0,0,1,15.2-4.232,11.434,11.434,0,0,1,4.787,4.232,14.376,14.376,0,0,1,1.059,13.195,16.3,16.3,0,0,1-1.615,2.838,11.657,11.657,0,0,1-8.907,4.676,10.964,10.964,0,0,1-5.734-1.168,12.533,12.533,0,0,1-6.9-11.135h0Zm-9.631-.723a22.416,22.416,0,0,0,3.172,11.412,18.335,18.335,0,0,0,3.006,3.787,21.676,21.676,0,0,0,6.236,4.454,22.979,22.979,0,0,0,14.7,1.392,21.175,21.175,0,0,0,10.244-5.792,22.008,22.008,0,0,0,4.342-24.218,21.393,21.393,0,0,0-1.892-3.506c-.223-.278-.334-.5-.557-.779s-.391-.445-.613-.722a20.006,20.006,0,0,0-4.231-3.9,22.518,22.518,0,0,0-21.767-1.95,20.438,20.438,0,0,0-5.011,3.12l-1.392,1.278a17.16,17.16,0,0,0-2.5,2.952,22.423,22.423,0,0,0-3.842,12.471l.112.056Z" transform="translate(-1661.074 -2408.928)" fill="#ea4334" fill-rule="evenodd"/>
  <path id="Path_156" data-name="Path 156" d="M4540.465,2570.316a12.01,12.01,0,0,1,6.513-11.3,10.043,10.043,0,0,1,11.47,1.336,5.92,5.92,0,0,1,1.278,1.949l-9.576,4.008c-1.225.5-9.13,3.842-9.685,4.009h0Zm-9.465,0a22.8,22.8,0,0,0,1.895,9.909,20.776,20.776,0,0,0,7.234,8.686,21.538,21.538,0,0,0,13.029,3.784,20.663,20.663,0,0,0,10.577-3.061,24.981,24.981,0,0,0,4.676-3.787,2.936,2.936,0,0,1,.388-.446c.447-.5,1.784-1.892,1.841-2.561-.394-.111-4.792-3.172-5.512-3.617a7.857,7.857,0,0,0-1.95-1.169c-.057.278-.166.335-.334.558a14.009,14.009,0,0,1-3.565,3.45,12.873,12.873,0,0,1-10.69,1.336,9.753,9.753,0,0,1-4.78-3.4,8.09,8.09,0,0,1-1.561-2.618l21.653-8.906c.557-.224,1.172-.5,1.727-.725l5.511-2.283a30.577,30.577,0,0,0-2.282-5.4,20.231,20.231,0,0,0-4.34-5.735c-5.459-5.454-13.418-6.4-20.545-3.729-.335.111-.557.278-.944.39a19.844,19.844,0,0,0-4.679,3.062,19.586,19.586,0,0,0-3.562,4.119,17.94,17.94,0,0,0-1.782,3.4,23.223,23.223,0,0,0-1.78,8.574l-.11.167Z" transform="translate(-4278.753 -2407.255)" fill="#ea4334" fill-rule="evenodd"/>
  <path id="Path_157" data-name="Path 157" d="M2620.472,2587.127a9.694,9.694,0,0,0-1.281-.557,12.462,12.462,0,0,1-3.506-2.673c-.334-.334-.612-.724-.891-1.057a13.111,13.111,0,0,1-1.447-2.616,11.754,11.754,0,0,1-.5-1.5,14.891,14.891,0,0,1-.223-7.181,12.134,12.134,0,0,1,2.672-5.567,11.462,11.462,0,0,1,2.06-1.948,11.854,11.854,0,0,1,2.616-1.45,12.406,12.406,0,0,1,6.959-.666,11.261,11.261,0,0,1,3.006,1.059,8.666,8.666,0,0,1,1.226.724,13.866,13.866,0,0,1,2.17,1.837,11.356,11.356,0,0,1,2.283,3.84,14.669,14.669,0,0,1,.834,7.906,12.07,12.07,0,0,1-14.086,10.411c-.722-.112-1.28-.334-1.891-.446Zm25.108-18.149-.725-2.171a19.942,19.942,0,0,0-3.34-5.79,22.02,22.02,0,0,0-16.257-8.018,23.005,23.005,0,0,0-12.136,3.063,29.882,29.882,0,0,0-3.062,2.115l-1.615,1.5a3.212,3.212,0,0,1-.334.445,22.248,22.248,0,0,0-3.73,23.159c.279.668.669,1.448.948,2,.168.28.891,1.728,1.225,1.728.11.78,1.558,2.115,2.059,2.784a3.012,3.012,0,0,0,.612.555,3.153,3.153,0,0,1,.614.614,22.165,22.165,0,0,0,7.683,4.285,23.443,23.443,0,0,0,12.581.335,20.931,20.931,0,0,0,8.018-4.008,24.359,24.359,0,0,0,3.563-3.619,6.973,6.973,0,0,0,.444-.667l1.391-2.227a22.3,22.3,0,0,0,2.283-13.975c-.055-.333-.111-.723-.167-1.056a8.293,8.293,0,0,1-.223-1.115l.113.056Z" transform="translate(-2457.799 -2410.872)" fill="#fbbb04" fill-rule="evenodd"/>
  <path id="Path_158" data-name="Path 158" d="M4292,2170.9v58.677h9.354V2166H4292Z" transform="translate(-4053.061 -2045.415)" fill="#34a753" fill-rule="evenodd"/>
  <path id="Path_159" data-name="Path 159" d="M810.711,4062.091h-2.95v-3.4h-7.015v3.4H797.74l8.351-12.584h-7.683L789,4063.149v4.73h11.524v3.787h7.237v-3.787h2.95Zm5.567,9.909a4.022,4.022,0,0,0,4.176-4.12,4.177,4.177,0,0,0-8.351,0A4.022,4.022,0,0,0,816.279,4072Zm4.844-22.493v9.022h6.18v-3.23h4.286l-7.014,16.368h8.184l7.4-17.594v-4.62H821.178Zm17.425,25.388h6.346L855.36,4045h-6.347Zm25.219-17.536H862.6l.167-2.171h8.573v-5.623H856.585l-1.114,13.472h6.458c2.672,0,3.34.613,3.34,1.558,0,1.171-1.225,1.728-2.9,1.728a12.163,12.163,0,0,1-5.957-1.612l-2.561,5.511a18.883,18.883,0,0,0,8.74,2c7.126,0,10.132-3.842,10.132-7.795s-2.5-7.069-9.074-7.069Z" transform="translate(-745.075 -3819.81)" fill="#373435"/>
  <path id="Path_160" data-name="Path 160" d="M2481.741,3936.592a8.482,8.482,0,0,0,7.07-3.174l-3.339-3.006a4.263,4.263,0,0,1-3.453,1.836c-2.226,0-3.675-1.5-3.675-3.953a3.617,3.617,0,0,1,3.675-3.953,4.346,4.346,0,0,1,3.453,1.838l3.339-3.006a8.557,8.557,0,0,0-7.07-3.174c-5.066,0-8.741,3.4-8.741,8.24s3.73,8.24,8.741,8.24Zm15.867,0c4.842,0,7.682-2.729,7.682-7.461V3920.5h-5.234v8.517c0,2.394-.945,3.285-2.392,3.285-1.5,0-2.395-.892-2.395-3.285V3920.5h-5.288v8.629c0,4.732,2.84,7.461,7.683,7.461Zm15.978,0c4.9,0,7.347-2.451,7.347-5.289,0-5.791-8.685-4.232-8.685-6.124,0-.557.5-1,2.06-1a9.824,9.824,0,0,1,4.4,1.17l1.614-3.844a12.236,12.236,0,0,0-5.958-1.39c-4.9,0-7.349,2.394-7.349,5.288,0,5.846,8.686,4.286,8.686,6.236,0,.556-.558.833-2.06.833a10.513,10.513,0,0,1-5.177-1.445l-1.727,3.841a14.314,14.314,0,0,0,6.849,1.615Zm12.08-.334h5.289v-11.636h4.619v-4.12h-14.53v4.12h4.622Zm19.319.334c5.12,0,8.85-3.451,8.85-8.24s-3.73-8.239-8.85-8.239-8.853,3.45-8.853,8.239S2539.86,3936.592,2544.984,3936.592Zm0-4.288c-1.95,0-3.508-1.5-3.508-3.952s1.558-3.952,3.508-3.952,3.505,1.5,3.505,3.952S2546.932,3932.3,2544.984,3932.3Zm29.67,3.954-.055-15.756h-4.342l-5.012,8.405-5.12-8.405h-4.343v15.756h4.845v-6.905l3.4,5.513h2.338l3.4-5.734.055,7.182h4.843Zm7.793-4.01v-2.059h6.682v-3.844h-6.682v-1.835h7.572V3920.5h-12.8v15.756H2590.3v-4.01Zm19.32,4.01h5.678l-3.285-4.846a5.225,5.225,0,0,0,2.951-4.955c0-3.617-2.784-5.955-7.183-5.955h-7.571v15.756h5.289V3932.3h1.447Zm0-9.8c0,1.171-.724,1.838-2.172,1.838h-1.948v-3.673h1.948C2601.044,3924.622,2601.768,3925.346,2601.768,3926.457Z" transform="translate(-2335.325 -3701.769)" fill="#373435"/>
  <path id="Path_161" data-name="Path 161" d="M2484.413,4364.542h6.847l-4.009-5.9a6.412,6.412,0,0,0,3.62-6.015c0-4.4-3.4-7.181-8.685-7.181H2473v19.038h6.4V4359.7h1.726l3.229,4.787Zm0-11.857c0,1.39-.835,2.226-2.618,2.226h-2.337v-4.453h2.337C2483.578,4350.457,2484.413,4351.292,2484.413,4352.685Zm15.2,7.013v-2.5h8.072v-4.619h-8.072v-2.228h9.185V4345.5H2493.32v19.04h15.867V4359.7h-9.576Zm25.775-14.2-4.676,11.134-4.565-11.134h-6.9l8.072,19.04h6.291l8.072-19.04Zm6.959,19.04h6.4V4345.5h-6.4Zm15.867-4.845v-2.5h8.072v-4.619h-8.072v-2.228h9.186V4345.5h-15.477v19.04h15.867V4359.7h-9.576Zm36.63-14.2-3.506,10.969L2578,4345.5h-5.9l-3.509,10.857-3.341-10.857h-6.623l6.123,19.04h6.9l3.229-10.189,3.061,10.189h6.9l6.125-19.04Zm14.643,19.483c5.9,0,8.852-2.952,8.852-6.4,0-7.014-10.521-5.119-10.521-7.4,0-.669.612-1.227,2.5-1.227a11.556,11.556,0,0,1,5.289,1.394l1.949-4.678a15.2,15.2,0,0,0-7.181-1.67c-5.9,0-8.853,2.895-8.853,6.4,0,7.125,10.522,5.179,10.522,7.573,0,.668-.668,1.059-2.506,1.059a13.016,13.016,0,0,1-6.291-1.728l-2.059,4.676a17.039,17.039,0,0,0,8.295,1.95Z" transform="translate(-2335.325 -4103.11)" fill="#373435"/>
  <g id="_446627560" transform="translate(36.966 11.58)">
    <path id="Path_162" data-name="Path 162" d="M2557.268,211.73c-.723-1.614-.944-2.784-2.283-3.73-4.007.946-4.286,11.023-8.405,11.691-2.84.445-9.186.612-11.581,1.67,0,2.06,4.955,6.736,6.793,8.573a17.83,17.83,0,0,1,1.948,2.227c-.055.056-.167.056-.167.223l-.223,1.281a28.592,28.592,0,0,0-.891,4.9,15.867,15.867,0,0,0-.946,6.736c2.506.056,2.615-.668,6.234-2.338,8.24-3.786,4.176-3.9,11.914.223a30.26,30.26,0,0,1,2.951,1.614c1.167.724,1.335,1.169,3.4,1.225a15.771,15.771,0,0,0-.557-6.792,16.109,16.109,0,0,0-.613-4.565c.112-3.619-1.114-1.169,2.339-4.565,1.67-1.67,6.569-5.456,6.68-7.627-3.4-1.781-11.747-1.67-13.084-3.062-.165-.167-3.006-6.792-3.452-7.738Z" transform="translate(-2430.838 -208)" fill-rule="evenodd" fill="url(#linear-gradient)"/>
    <path id="Path_163" data-name="Path 163" d="M1541.2,501.778c-1.058-2.171-1.892-2.227-3.062-.111l-3.173,6.346c-.334.724-.835,1.726-1.28,2.505-1.058,1.726-2.951,1.559-6.291,1.837-2.115.223-3.729.334-5.679.557a4.191,4.191,0,0,0-.891.278c-.166.111-.778.167-.834,1-.056,1.336,6.735,8.239,8.462,9.464l-.056,1.5c-.612,3.507-1.391,7.07-2.227,10.577-.278,5.177,7.237-2.282,12.971-3.451l7.906,4.621c1.225.668,3.229,2.338,3.953.556.39-.946-.445-4.342-.557-5.233a37.485,37.485,0,0,0-.946-6.458c.724-3.34,8.963-7.571,9.353-11.023-1.391-.724-9.241-1.948-11.134-2.282C1544.49,511.8,1542.485,504.728,1541.2,501.778Z" transform="translate(-1472.34 -483.852)" fill-rule="evenodd" fill="url(#linear-gradient-2)"/>
    <path id="Path_164" data-name="Path 164" d="M3617.137,613.847c-1.67-.891-11.022-2.283-13.472-2.839-.334-2.06-3.118-7.905-4.175-10.132-1.839-3.9-3.117.056-4.118,1.893-1,1.893-3.564,5.957-3.731,7.85-3.062.557-11.858,1.28-13.641,2.059.112,2,5.791,7.516,7.517,9.353,1.169,1.169.89.5,1.169,2.227a34.474,34.474,0,0,0-1.335,6.347c-.836,4.843-2.617,7.627,3.117,4.9,1.561-.724,2.448-1.336,3.951-2a42.808,42.808,0,0,0,4.231-2.116c5.512,1.447,12.3,9.074,12.7,4.565-.56-3.674-1.173-7.293-1.616-11.023l.056-1.5c1.838-1.169,9.13-7.571,9.352-9.52Z" transform="translate(-3415.775 -577.438)" fill-rule="evenodd" fill="url(#linear-gradient-3)"/>
    <path id="Path_165" data-name="Path 165" d="M683.652,1108.112c-3.73,2.338-3.9,11.19-8.351,11.746l-5.344.5c-2,.39-4.231.333-5.957,1.114,0,3.284,7.961,8.072,8.741,11.134-.056.111-.111.111-.111.278l-1.169,5.734c-.39,2.338-1.392,4.676-.946,6.736,3.674.111,9.742-5.066,12.248-5.178,1.28-.055,4.732,2.394,5.9,3.062,2.115,1.169,4.454,2.784,6.346,2.84.334-1.281-.668-12.081-1.5-13.25l4.4-4.288c1.224-1.113,2.227-2.115,3.507-3.284,1.058-1,1.392-.835,1.447-2.728-1.169-.613-5.623-1.448-7.181-1.671-3.452-.557-5.233-.278-6.18-2.226-1.169-2.339-3.841-10.021-5.79-10.634Z" transform="translate(-664 -1057.896)" fill-rule="evenodd" fill="url(#linear-gradient-4)"/>
    <path id="Path_166" data-name="Path 166" d="M4429.05,1238.479l-.164,6.235-.113,4.565-.109,3.841,3.842,2.117c-.058-1.615-.893-10.355-.449-10.634,2.062-1.336,4.289-4.008,6.291-5.79l-9.128-2-.057,1.67Zm14.029.111c.5-.334.668-.78.725-2.06-1.559-.779-4.343-1.113-6.514-1.559-1.894-.334-5.012-1.058-6.568-1.114a89.983,89.983,0,0,0-3.509-8.406c-.725-1.5-.891-2.951-2.56-3.453-1.337.836-4.23,6.848-5.458,8.964a6.2,6.2,0,0,0-.947,2.561c-1.556-.166-11.968,1.28-13.249,1.893a2.462,2.462,0,0,0,.782,2.227c.944,1,2.282,2.227,7.235,7.07.67.445.56.667.447,2-.114,1.614-.447,1.614-.613,3.284-.335,1.836-.891,3.786-1.28,5.678-.392,2-.5,1.893-.169,3.73,3.508.111,9.633-5.066,12.25-5.177,1.055-.057,4.287,2.227,5.9,3.062,3.339,1.782,3.614,2.728,6.345,2.839.5-1.781-.948-10.967-1.5-13.638,2.837-2.45,5.789-6.013,8.626-7.851Z" transform="translate(-4196.734 -1165.549)" fill-rule="evenodd" fill="url(#linear-gradient-5)"/>
  </g>
</svg>
