<svg xmlns="http://www.w3.org/2000/svg" width="351.5" height="138.493" viewBox="0 0 351.5 138.493"><g id="Group_55" data-name="Group 55" transform="translate(-192 -56)"><g id="Group_39" data-name="Group 39"><path id="Path_191" data-name="Path 191" d="M-1.28,4.581S1.9-.364,13.948-2.09C13.837-2.074,24.31-4.2,24.519-4.229A43.125,43.125,0,0,1,45.285-2.09S42.39,3.1,49.312,10.37s23.66,16.612,23.66,16.612L51.7,34.911,41.384,56.18,25.778,31.387l-3.02-7.551s-.264-4.209-1.259-5.412C10.833,5.524-1.28,4.581-1.28,4.581Z" transform="translate(198.706 94.392)" fill="#fff"></path><g id="Group_18" data-name="Group 18" transform="translate(192 56)"><g id="Group_17" data-name="Group 17" transform="translate(164.653 5.787)"><text id="DUBAI_" data-name="DUBAI " transform="translate(0 24)" font-size="25" font-family="Montserrat-SemiBold, Montserrat" font-weight="600"><tspan x="0" y="0">DUBAI </tspan></text><text id="PRIVATE_" data-name="PRIVATE " transform="translate(0 59.234)" font-size="25" font-family="Montserrat-Regular, Montserrat"><tspan x="0" y="0">PRIVATE </tspan></text><text id="ADVENTURE_" data-name="ADVENTURE " transform="translate(0 93.113)" font-size="25" font-family="Montserrat-Regular, Montserrat"><tspan x="0" y="0">ADVENTURE </tspan></text></g><g id="Layer_x0020_1" transform="translate(0 0)"><g id="_592602048" transform="translate(0 0)"><path id="Path_167" data-name="Path 167" d="M559.679,44.528c0,3.832,10.577,32.191,4.139,47.674-2.606,6.285-2.146,8.125-7.818,12.723,26.826-17.935,6.592-45.835,19.315-58.251,2.453-2.453,7.818-4.752,11.65-7.2L623.6,13.1c-7.664,32.8-36.177,35.1-43.075,44.608C607.813,51.273,631.573,32.724,631.573-1c-4.446,2.913-11.19,8.738-15.636,12.723-8.891,7.971-24.527,18.7-35.717,22.994-4.752,1.686-20.542,5.365-20.542,9.657Z" transform="translate(-471.076 1)" fill="#ea7807" fill-rule="evenodd"></path><path id="Path_168" data-name="Path 168" d="M913,732.457c9.658,0,20.234-.767,29.586.766,35.411,5.826,96.728,20.542,182.265,1.227-62.083,7.511-96.574,8.124-149.767.307-15.023-2.146-41.236-8.585-55.339-4.905A20.2,20.2,0,0,0,913,732.611Z" transform="translate(-773.351 -616.875)" fill="#1b1464" fill-rule="evenodd"></path><path id="Path_169" data-name="Path 169" d="M29.133,226.91l-11.8-7.971c-4.752-2.146-4.752,0-7.971.153,6.9-6.592,38.17-13.337,42.462-2.913-2.913,11.8,22.994,19.468,28.053,24.527-12.417.307-16.249-6.438-27.746-11.5l2.146,11.5c-8.278-6.285-6.745-8.431-9.5-13.643-1.84-2.759-3.526-4.292-5.825-4.6-2.3-.46-5.212.307-6.592,4.6H29.286Zm97.494,81.4h0c-19.162,2.913-43.382,6.285-58.558-19.008-6.745-11.8-7.511-22.074-3.832-37.863,4.752-2.453,10.577-1.073,15.176,0,.153-.307,0-1.073,0-.766l-.307-2.606c.307-8.891,8.584-3.832,11.8-11.8H81.1c-7.358-.766-22.687-10.271-22.994-16.249-1.226-4.139,1.38-5.059,2.606-8.278-12.57-1.073-17.782-6.438-34.951-2.759C12.73,211.734,4.913,214.647,2,226.91c6.745-.613,11.957-8.891,21.154.46,3.372,3.372,1.686,2.3,6.285,6.132,9.044,24.68,28.972,63,51.2,75.42,11.037,6.132,35.717,8.124,46.141-.613ZM31.432,232.275C36.8,244.539,59.791,252.2,49.674,267.686,45.688,247.145,30.972,247.6,31.432,232.275Z" transform="translate(-2 -175.71)" fill-rule="evenodd"></path><path id="Path_170" data-name="Path 170" d="M519,719c5.672,21.461,35.564,8.891,56.565,8.891-.306-1.073-1.993-2.453-4.445-3.066C555.177,719.613,540.614,733.409,519,719Z" transform="translate(-439.748 -608.629)" fill="#1916f0" fill-rule="evenodd"></path><path id="Path_171" data-name="Path 171" d="M742.52,375.672l3.526,4.752c-2.606.766-11.344,7.511-30.046,6.592,1.687,2.606,30.209,12.1,43.535-17.015C753.1,371.533,749.725,373.986,742.52,375.672Z" transform="translate(-606.549 -313.128)" fill="#eb2826" fill-rule="evenodd"></path><path id="Path_172" data-name="Path 172" d="M753.527,531.993c.766,1.073,1.993,2.453,1.839,3.526C755.06,536.745,741.2,543.3,729,539.5c20.89,8.822,36.024,3.986,39.7-9.5-7.358.613-10.271,1.226-15.176,1.84Z" transform="translate(-617.556 -448.602)" fill-rule="evenodd"></path><path id="Path_173" data-name="Path 173" d="M728,653.3c3.832,5.212,11.65,7.2,18.4,6.745,9.964-.613,13.49-2.606,17.628-8.585l-9.657-.46a5.272,5.272,0,0,1-.153,3.526c-.613,1.379-18.242,5.059-26.06-1.38Z" transform="translate(-616.71 -551.053)" fill="#00732f" fill-rule="evenodd"></path><path id="Path_174" data-name="Path 174" d="M573.832,814.672c8.431,4.6,24.527-3.372,31.732-2.913V809.92c-16.249,0-18.4,3.066-35.564-.92Z" transform="translate(-482.93 -684.833)" fill="#1916f0" fill-rule="evenodd"></path><circle id="Ellipse_6" data-name="Ellipse 6" cx="1.264" cy="1.264" r="1.264" transform="translate(21.074 40.332)"></circle></g></g></g></g></g></svg>